<svg viewBox="0 0 448 512" fill="none" xmlns="http://www.w3.org/2000/svg">
<g clip-path="url(#clip0_419_86)">
<path d="M117.1 211.1H81.1C72.02 211.1 64 220 64 229.1C64 278.74 104.36 319.09 153.1 319.09H189.1C199.1 319.1 208 311.1 208 301.1C208 252.3 167.6 211.1 117.1 211.1ZM189.1 303.1H153.1C113.2 303.1 80 270.8 80 229.1C80 227.959 80.8594 227.1 81.999 227.1H117.999C158.8 227.1 192 261.2 192 301.1C192 303.1 191.1 303.1 189.1 303.1ZM365.1 211.1H329.1C280.4 211.1 240 252.3 240 301.1C240 311.084 247.891 318.2 257.87 318.2L293.99 318.2C343.6 319.1 384 279.6 384 229.1C384 220 375.1 211.1 365.1 211.1ZM293.1 303.1H257.1C256.9 303.1 256 303.1 256 301.1C256 260.3 289.2 227.11 329.1 227.11H365.1C366.241 227.11 367.101 227.969 367.101 229.11C368 270.8 334.8 303.1 293.1 303.1ZM224 9.91821e-05C100.2 9.91821e-05 0 87.1001 0 232.5C0 344.2 134.3 457 194.9 502.4C203.5 508.8 213.8 512 224 512C234.2 512 244.5 508.781 253.12 502.344C313.8 456.1 448 344.2 448 232.5C448 87.1 347.8 9.91821e-05 224 9.91821e-05ZM243.6 489.5C237.9 493.8 231.1 496 224 496C216.9 496 210.12 493.76 204.46 489.535C147.8 447.1 16 337.2 16 232.5C16 105 101.53 16 224 16C346.47 16 432 105.02 432 232.5C432 337.2 300.2 447.1 243.6 489.5Z" fill="currentColor"/>
</g>
<defs>
<clipPath id="clip0_419_86">
<rect width="448" height="512" fill="white"/>
</clipPath>
</defs>
</svg>
