<svg viewBox="0 0 576 512" fill="none" xmlns="http://www.w3.org/2000/svg">
<path d="M537.6 161.4L511.2 156.5C512.604 143.85 511.696 136.51 511.696 135.45C509.741 109.89 498.606 91.26 498.356 90.86L522.096 76.35C525.797 74.094 526.959 69.262 524.727 65.56C522.432 61.833 517.569 60.697 513.957 62.937L489.967 77.597C473.017 53.457 446.467 41.717 437.117 38.617L445.556 10.117C446.81 5.959 444.423 1.586 440.294 0.344003C436.194 -0.837997 431.79 1.494 430.565 5.637L421.969 34.667C403.789 30.714 387.989 31.444 357.239 36.763L351.551 6.883C350.754 2.633 346.656 -0.0819971 342.405 0.639003C338.151 1.4535 335.368 5.565 336.194 9.83L341.921 39.92C320.531 44.584 299.871 51.02 280.171 59.27L267.7 31.21C265.9 27.23 261.3 25.44 257.4 27.22C253.4 28.98 251.6 33.63 253.4 37.59L265.87 65.69C246.2 74.98 227.6 86 210.1 98.59L191.7 74.43C189.1 70.96 184.2 70.29 180.8 72.94C177.345 75.563 176.702 80.502 179.302 83.94L197.5 107.9C180.5 121.4 164.9 136.5 150.6 152.8L127.5 133.8C124.2 131.1 119.3 131.6 116.5 134.9C113.7 138.3 114.2 143.2 117.6 145.1L140.47 163.89C126.98 180.84 115.09 199.11 104.85 218.45L78.93 206.6C75.043 204.698 70.332 206.293 68.47 210.205C66.574 214.117 68.1946 218.812 72.079 220.715L97.89 233.4C88.63 252.9 80.96 273.4 75.32 294.8L48.37 288.6C44.21 287.665 39.958 290.274 38.979 294.524C38.03 298.8 40.66 303 44.88 303.1L71.85 309.239C70.635 314.823 69.256 320.339 68.301 326.029C66.508 336.709 65.176 347.559 64.33 358.559C63.8945 364.207 63.914 369.789 64.3066 375.269L38.43 380.8C34.178 381.581 31.364 385.663 32.127 389.945C32.377 391.295 34.463 397.32 41.244 396.265L66.604 391.646C69.026 402.856 73.053 413.526 77.704 423.276C83.597 433.636 91.584 442.466 100.394 450.456L85.144 470.216C82.484 473.638 83.095 478.579 86.521 481.236C90.013 483.918 94.921 483.218 97.501 479.824L112.431 460.484C144.811 482.474 175.041 479.764 178.321 479.674L180.153 504.694C181.3 508.9 184.8 512 188.8 512C193.407 512 196.95 508.086 196.601 503.576L194.744 478.216C217.784 474.302 238.474 463.296 254.574 447.356L274.634 466.666C278.456 470.424 283.527 468.687 285.704 466.435C288.7 463.306 288.579 458.335 285.458 455.345L265.078 435.736C279.388 416.946 285.838 397.126 287.938 374.646L318.498 378.164C322.982 378.623 326.676 375.423 327.154 371.243C327.644 366.932 324.584 363.05 320.271 362.544L290.541 359.122C295.072 337.822 304.621 318.703 317.951 302.693L338.651 321.592C342.042 324.678 346.999 324.072 349.691 321.071C352.597 317.864 352.382 312.893 349.171 309.961L328.6 291.1C343.6 276.97 361.89 266.35 382.42 260.53L388.086 287.8C388.365 289.095 390.959 295.386 397.356 293.876C401.608 293.001 404.299 288.829 403.444 284.593L397.807 257.473C401.418 256.895 404.897 255.95 408.607 255.664C427.757 254.189 445.097 247.555 460.197 237.854L477.3 260.2C479.933 263.655 484.886 264.274 488.28 261.641C491.706 259.002 492.348 254.061 489.718 250.621L472.878 228.651C477.155 224.962 481.384 221.204 485.048 216.921C496.048 204.081 503.688 188.601 508.008 171.871L534.738 176.838C541.33 178.072 543.64 171.865 543.884 170.547C544.6 166.3 541.9 162.2 537.6 161.4ZM407.4 239.7C334.43 245.307 277.4 302.35 271.7 375.4C267.9 425.1 225.9 464 176.1 464C173.594 464 171.088 463.904 168.61 463.719C143.04 461.75 119.77 449.939 103.08 430.479C86.4 411.009 78.3 386.209 80.27 360.639C93.19 192.539 224.57 61.2387 392.57 48.3387C460.53 43.1837 492.77 99.0087 495.67 136.689C499.8 189.4 460.1 235.7 407.4 239.7ZM192 272C165.6 272 144 293.5 144 320C144 346.5 165.55 368 192.01 368C218.47 368 240.02 346.47 240.02 320C240.02 293.53 218.5 272 192 272ZM192 351.1C174.33 351.1 160.9 336.77 160.9 320C160.9 302.33 175.23 288.9 192 288.9C208.77 288.9 223.1 303.23 223.1 320C223.1 337.7 209.7 351.1 192 351.1ZM272 176C254.36 176 240 190.36 240 208C240 225.64 254.36 240 272 240C289.64 240 304 225.64 304 208C304 190.36 289.6 176 272 176ZM272 224C263.2 224 256 216.8 256 208C256 199.2 263.2 192 272 192C280.8 192 288 199.2 288 208C288 216.8 280.8 224 272 224Z" fill="currentColor"/>
</svg>
