<svg viewBox="0 0 512 512" fill="none" xmlns="http://www.w3.org/2000/svg">
    <g clip-path="url(#clip0_6_24)">
        <path d="M334 426.2C333.422 426.2 332.826 426.259 332.219 426.382C322.574 428.22 313.009 429.103 303.619 429.103C222.329 429.103 153.719 363.023 153.719 278.803C153.719 224.553 182.719 174.803 229.719 147.903C237.094 143.778 235.169 132.783 226.919 131.283C215 129 203.3 127.1 191.7 127.1C87.1 127.1 0 212.1 0 320C0 426 85.76 512 191.8 512C251.05 512 305 485.21 340.7 440.96C345.7 434.1 341.1 426.2 334 426.2ZM191.8 496C94.84 496 16 417 16 320C16 272.57 34.52 228.14 68.15 194.9C101.4 162.1 145.2 143.1 191.6 143.1C196.262 143.1 200.952 143.29 205.64 143.665C163.3 175.7 137.8 225.6 137.8 278.8C137.8 370.52 212.22 445.1 303.7 445.1C307.792 445.1 311.901 444.948 315.94 444.649C283.1 477.5 238.8 496 191.8 496ZM504 216H424V136C424 131.578 420.406 128 416 128C411.594 128 408 131.6 408 136V216H328C323.6 216 320 219.6 320 224C320 228.4 323.594 232 328 232H408V312C408 316.4 411.6 320 416 320C420.4 320 424 316.422 424 312V232H504C508.4 232 512 228.4 512 224C512 219.6 508.4 216 504 216ZM264 72H312V120C312 124.4 315.6 128 320 128C324.4 128 328 124.422 328 120V72H376C380.4 72 384 68.42 384 64C384 59.58 380.406 56 376 56H328V8C328 3.578 324.4 0 320 0C315.6 0 312 3.578 312 8V56H264C259.6 56 256 59.58 256 64C256 68.42 259.6 72 264 72Z"
              fill="currentColor"/>
    </g>
    <defs>
        <clipPath id="clip0_6_24">
            <rect width="512" height="512" fill="white"/>
        </clipPath>
    </defs>
</svg>
