<svg viewBox="0 0 640 512" fill="none" xmlns="http://www.w3.org/2000/svg">
<g clip-path="url(#clip0_504_4)">
<path d="M424 186.1C424 183.204 421.682 178.099 416.027 178.099C408.6 178.1 382.9 216 320 216C257.46 216 231.37 178.06 223.96 178.06C218.317 178.06 215.999 183.17 215.999 186.061C215.999 190.951 218.945 192.722 231.529 202.301C221.5 218.7 216 236.1 216 256C216 313.34 262.66 360 320 360C377.34 360 424 313.3 424 256C424 236.99 418.471 218.66 408.47 202.3C420.8 192.1 424 191.1 424 186.1ZM301.7 230.7C307.7 231.5 313.8 232 320 232C326.152 232 332.22 231.494 338.23 230.742C341.47 237.638 343.966 245.902 343.966 256.032C343.966 288.002 319.986 304.012 319.986 304.012C319.986 304.012 295.1 288 295.1 256C295.1 245.9 298.5 237.6 301.7 230.7ZM320 344C271.47 344 232 304.53 232 256C232 240.25 236.284 224.94 244.44 211.28C244.441 211.281 244.439 211.28 244.44 211.28C244.442 211.28 244.438 211.28 244.44 211.28C244.928 211.28 259.66 221.45 285.75 227.69C281.99 236.858 279.969 246.16 279.969 256.03C279.969 293 307.449 320.01 319.989 320.01C332.509 320.01 359.969 292.97 359.969 256.03C359.969 246.159 357.948 236.86 354.194 227.7C380.314 221.472 395.074 211.28 395.564 211.28C395.566 211.28 395.562 211.28 395.564 211.28C395.565 211.28 395.563 211.281 395.564 211.28C403.7 224.9 408 240.3 408 256C408 304.5 368.5 344 320 344ZM621.3 231.9L515 203.2C511.734 198.856 508.219 194.388 504.42 189.79C516.01 171.45 555.14 109.48 555.17 109.45C557.677 105.422 558.918 100.956 558.918 96.51C558.918 80.73 544.938 71.39 533.028 71.39C529.95 71.39 526.814 71.9211 523.738 73.014L410.138 113.894C402.216 110.175 393.998 106.894 385.588 104.144L343.708 15.054C339.4 5.781 330.3 0 319.1 0C307.9 0 300.6 5.781 296.3 15.03L254.41 104.16C246 106.9 237.8 110.2 229.9 113.9L116.3 73.03C113.2 71.96 110.1 71.43 106.1 71.43C94.32 71.43 80.2 80.72 80.2 96.51C80.2 100.969 81.448 105.459 83.974 109.52L134.704 189.83C131.1 194.2 128.4 198.7 125 203.2L18.66 231.9C7.49999 234.9 -0.000106812 244.5 -0.000106812 256C-0.000106812 267.47 7.49989 277.12 18.6299 280.06L125.03 308.78C128.264 313.092 131.78 317.53 135.51 322.09C79.5599 410.51 81.0899 406.51 81.0899 415.47C81.0899 431.25 95.0699 440.59 106.98 440.59C110.058 440.59 113.194 440.059 116.27 438.966L229.87 398.086C237.792 401.805 246.01 405.086 254.42 407.836L296.3 496.926C300.6 506.2 309.7 512 319.1 512C328.5 512 338.49 506.219 342.79 496.97L384.68 407.84C393.086 405.09 401.3 401.809 409.23 398.09L522.83 438.97C525.924 440.066 529.071 440.6 532.156 440.6C543.986 440.6 557.996 431.185 557.996 415.49C557.996 406.176 558.516 408.921 503.586 322.1C507.32 317.538 510.836 313.1 514.066 308.79L620.466 280.1C631.626 277.131 639.126 267.48 639.126 256.01C639.126 244.54 632.5 234.9 621.3 231.9ZM617.2 264.6L505.4 294.76C497.024 306.14 494 309.45 484.65 321.01C485.116 321.71 542.89 411.22 542.89 415.42C542.89 421.394 536.894 424.54 532.86 424.54C531.674 424.54 530.408 424.341 529.082 423.882L409.182 380.722C392.372 389.039 383.482 391.682 374.072 394.662L329.182 490.162C327.494 493.787 323.741 495.607 319.983 495.607C316.225 495.607 312.463 493.787 310.76 490.13L265.88 394.66C256.708 391.759 247.71 389.102 230.77 380.72L110.87 423.88C109.544 424.338 108.277 424.538 107.088 424.538C102.895 424.538 97.038 421.227 97.038 415.401C97.038 410.951 154.898 321.771 155.398 321.041C145.3 308.9 141.8 304.6 134.5 294.8L22.75 264.6C16.48 262.1 16 257.6 16 256C16 254.4 16.4844 249.031 22.781 247.375L134.581 217.215C143.417 205.215 148.241 199.605 155.471 191.155C90.74 91.14 97.05 97.76 97.05 96.56C97.05 90.636 102.944 87.422 107.027 87.422C108.227 87.422 109.51 87.6268 110.857 88.0978L230.757 131.258C247.567 122.941 256.457 120.298 265.867 117.318L310.757 21.8178C312.445 18.1928 316.198 16.3728 319.956 16.3728C323.714 16.3728 327.476 18.1928 329.179 21.8498L374.059 117.32C383.231 120.221 392.229 122.878 409.169 131.26L529.069 88.0998C530.404 87.6288 531.681 87.424 532.879 87.424C537.037 87.424 542.899 90.755 542.899 96.57C542.899 97.783 548.491 92.115 484.489 191.19C491.768 199.634 496.149 204.65 505.399 217.22L617.199 247.38C623.5 249 624 254.4 624 256C624 257.6 623.5 262.1 617.2 264.6Z" fill="currentColor"/>
</g>
<defs>
<clipPath id="clip0_504_4">
<rect width="640" height="512" fill="white"/>
</clipPath>
</defs>
</svg>
