<svg viewBox="0 0 512 512" fill="none" xmlns="http://www.w3.org/2000/svg">
    <g clip-path="url(#clip0_6_20)">
        <path d="M256 136C189.7 136 136 189.7 136 256C136 322.27 189.72 376 256 376C322.28 376 376 322.27 376 256C376 189.7 322.3 136 256 136ZM256 360C198.65 360 152 313.35 152 256C152 198.65 198.7 152 256 152C313.3 152 360 198.7 360 256C360 313.3 313.3 360 256 360ZM256 112C260.422 112 264 108.422 264 104V8C264 3.578 260.4 0 256 0C251.6 0 248 3.578 248 8V104C248 108.4 251.6 112 256 112ZM256 400C251.578 400 248 403.578 248 408V504C248 508.4 251.6 512 256 512C260.4 512 264 508.422 264 504V408C264 403.6 260.4 400 256 400ZM504 248H408C403.578 248 400 251.578 400 256C400 260.422 403.578 264 408 264H504C508.4 264 512 260.4 512 256C512 251.6 508.4 248 504 248ZM112 256C112 251.578 108.422 248 104 248H8C3.578 248 0 251.6 0 256C0 260.4 3.578 264 8 264H104C108.4 264 112 260.4 112 256ZM363.5 156.5C365.547 156.5 367.594 155.719 369.156 154.156L421.676 101.636C424.801 98.511 424.801 93.448 421.676 90.326C418.551 87.204 413.488 87.201 410.366 90.326L357.846 142.846C354.721 145.971 354.721 151.046 357.846 154.166C359.4 155.7 361.4 156.5 363.5 156.5ZM142.9 357.8L90.38 410.32C87.255 413.445 87.255 418.508 90.38 421.63C91.91 423.2 93.95 424 96 424C98.05 424 100.094 423.219 101.656 421.656L154.176 369.136C157.301 366.011 157.301 360.936 154.176 357.806C151.051 354.676 145.1 354.7 142.9 357.8ZM369.1 357.8C365.975 354.675 360.912 354.662 357.79 357.788C354.668 360.913 354.665 365.987 357.79 369.117L410.31 421.638C411.9 423.2 413.1 424 416 424C418.9 424 420.094 423.219 421.656 421.656C424.781 418.531 424.781 413.468 421.656 410.346L369.1 357.8ZM142.9 154.2C144.462 155.762 146.509 156.544 148.556 156.544C150.603 156.544 152.6 155.7 154.2 154.2C157.325 151.075 157.325 146 154.2 142.88L101.7 90.34C98.575 87.215 93.512 87.215 90.39 90.34C87.268 93.465 87.265 98.528 90.39 101.65L142.9 154.2Z"
              fill="currentColor"/>
    </g>
    <defs>
        <clipPath id="clip0_6_20">
            <rect width="512" height="512" fill="white"/>
        </clipPath>
    </defs>
</svg>
