<svg viewBox="0 0 320 512" fill="none" xmlns="http://www.w3.org/2000/svg">
<g clip-path="url(#clip0_24_78)">
<path d="M317.7 402.3C320.825 405.425 320.825 410.488 317.7 413.61C314.573 416.737 309.514 416.737 306.39 413.61L160 267.3L13.7 413.6C10.573 416.727 5.51399 416.727 2.38999 413.6C-0.735006 410.475 -0.735006 405.412 2.38999 402.29L148.7 256L2.34399 109.7C-0.781006 106.575 -0.781006 101.512 2.34399 98.39C5.46899 95.268 10.532 95.265 13.654 98.39L160 244.7L306.3 98.4C309.425 95.275 314.488 95.275 317.61 98.4C320.732 101.525 320.735 106.588 317.61 109.71L171.3 256L317.7 402.3Z" fill="currentColor"/>
</g>
<defs>
<clipPath id="clip0_24_78">
<rect width="320" height="512" fill="white"/>
</clipPath>
</defs>
</svg>
