<svg viewBox="0 0 640 512" fill="none" xmlns="http://www.w3.org/2000/svg">
<g clip-path="url(#clip0_820_8)">
<path d="M528 48C545.64 48 560 62.36 560 80V294.1L464.97 199.07C455.595 189.726 440.41 189.726 431.03 199.07L401.37 228.73L413.98 238.75L442.35 210.38C445.475 207.255 450.538 207.255 453.66 210.38L560 316.7V354.8L576 367.52V80C576 53.49 554.5 32 528 32H153.9L174.03 48H528ZM188.7 464L311.5 341.2L298.89 331.18L288 342.1L208.1 263C198.725 253.656 183.54 253.656 174.16 263L79.9999 358.1V157.2L63.9999 144.5V432C63.9999 458.5 85.4899 480 112 480H486.1L465.97 464H188.7ZM112 464C94.3599 464 79.9999 449.64 79.9999 432V380.69L186.3 274.39C189.425 271.265 194.488 271.265 197.61 274.39L276.64 353.42L166.1 464H112ZM636.1 497.7L12.9899 1.73C11.5299 0.5664 9.77091 0 8.02491 0C5.67391 0 3.33591 1.027 1.73791 3.012C-1.01209 6.481 -0.434089 11.512 3.01891 14.262L626.119 510.262C628.5 511.4 630.2 512 631.1 512C633.444 512 635.788 510.969 637.366 508.984C641 505.5 640.4 500.5 636.1 497.7Z" fill="currentColor"/>
</g>
<defs>
<clipPath id="clip0_820_8">
<rect width="640" height="512" fill="white"/>
</clipPath>
</defs>
</svg>
