<svg viewBox="0 0 512 512" fill="none" xmlns="http://www.w3.org/2000/svg">
<g clip-path="url(#clip0_819_4)">
<path d="M256 128C211.8 128 176 163.8 176 208C176 252.2 211.8 288 256 288C300.18 288 336 252.18 336 208C336 163.82 300.2 128 256 128ZM256 272C220.71 272 192 243.29 192 208C192 172.71 220.71 144 256 144C291.29 144 320 172.71 320 208C320 243.29 291.3 272 256 272ZM256 0C114.6 0 0 114.6 0 256C0 397.4 114.6 512 256 512C397.4 512 512 397.4 512 256C512 114.6 397.4 0 256 0ZM256 496C201.96 496 152.2 477.83 112.9 447.57C112.3 386 162.4 336 224 336H288C349.61 336 399.7 386.02 399.1 447.6C359.8 477.8 310 496 256 496ZM414.7 435.5C408.4 370.8 354.4 320 288 320H224C157.58 320 103.6 370.78 97.3 435.5C47.55 391.5 16 327.4 16 256C16 123.7 123.7 16 256 16C388.3 16 496 123.7 496 256C496 327.4 464.4 391.5 414.7 435.5Z" fill="currentColor"/>
</g>
<defs>
<clipPath id="clip0_819_4">
<rect width="512" height="512" fill="white"/>
</clipPath>
</defs>
</svg>
