<svg viewBox="0 0 512 512" fill="none" xmlns="http://www.w3.org/2000/svg">
<g clip-path="url(#clip0_504_12)">
<path d="M502.6 102.6L409.34 9.35C403.4 3.371 395.2 0 386.7 0H271.1C244.59 0 223.1 21.49 223.1 48V336C223.1 362.51 244.59 384 271.1 384H464C490.51 384 512 362.51 512 336L512 125.3C511.1 116.8 508.6 108.6 502.6 102.6ZM399.1 22.63L489.4 112H424.02C410.8 112 400.02 101.23 400.02 88V22.63H399.1ZM495.1 336C495.1 353.64 480.74 368 463.1 368H271.1C253.46 368 239.1 353.64 239.1 336V48C239.1 30.36 253.46 16 271.1 16H383.1V88C383.1 110.06 401.04 128 423.1 128H495.1V336ZM279.1 448C274.682 448 271.1 451.582 271.1 456V464C271.1 481.67 256.77 496 239.1 496H47.1C29.43 496 15.1 481.67 15.1 464V176C15.1 158.33 29.43 144 47.1 144H151.1C155.518 144 159.1 140.418 159.1 136C159.1 131.582 156.4 128 151.1 128H47.1C20.59 128 -0.900024 149.49 -0.900024 176V464C-0.900024 490.51 20.59 512 47.1 512H239.1C265.61 512 287.1 490.51 287.1 464V456C287.1 451.6 284.4 448 279.1 448Z" fill="currentColor"/>
</g>
<defs>
<clipPath id="clip0_504_12">
<rect width="512" height="512" fill="white"/>
</clipPath>
</defs>
</svg>
