<svg viewBox="0 0 384 512" fill="none" xmlns="http://www.w3.org/2000/svg">
<g clip-path="url(#clip0_504_20)">
<path d="M72 80H152C156.4 80 160 76.41 160 72C160 67.59 156.4 64 152 64H72C67.59 64 64 67.59 64 72C64 76.41 67.59 80 72 80ZM374.6 150.6L233.3 9.3C227.4 3.371 219.2 0 210.7 0H64C28.65 0 0 28.65 0 64L0.0065 448C0.0065 483.34 28.6565 512 64.0065 512H320C355.35 512 384 483.34 384 448V173.3C384 164.8 380.6 156.6 374.6 150.6ZM224 22.63L361.4 160H248C234.8 160 224 149.2 224 136V22.63ZM368 448C368 474.47 346.47 496 320 496H64C37.53 496 16 474.47 16 448V64C16 37.53 37.53 16 64 16H208V136C208 158.06 225.94 176 248 176H368V448ZM72 144H152C156.4 144 160 140.4 160 136C160 131.6 156.4 128 152 128H72C67.59 128 64 131.6 64 136C64 140.4 67.59 144 72 144ZM209.6 329.6C195.29 329.6 182.07 340.44 174.24 358.6L161.97 386.66L142.5 308.5C139.891 298.09 133.094 294.25 127.61 294.12C121.5 293.4 115.5 297.5 112.6 307.4L90.58 382.24C90.27 383.2 89.94 383.8 90.2 384H64C59.578 384 56 387.594 56 392C56 396.406 59.58 400 64 400H91.06C97.794 400 103.47 394.938 105.89 386.75L127.36 313.78L146.75 391.75C148.797 400.031 154.203 405.53 160.84 406.06C161.152 406.091 161.496 406.122 161.824 406.122C166.527 406.122 172.354 403.403 175.664 395.712L188.934 364.932C198.387 343.052 216.074 339.993 227.274 358.964L238.934 378.773C246.9 392.3 258.3 400 270.4 400H320C324.422 400 328 396.406 328 392C328 387.594 324.4 384 320 384H270.39C264.156 384 257.72 379.125 252.72 370.66L241.06 350.85C233.1 337.4 221.7 329.6 209.6 329.6Z" fill="currentColor"/>
</g>
<defs>
<clipPath id="clip0_504_20">
<rect width="384" height="512" fill="white"/>
</clipPath>
</defs>
</svg>
