<svg viewBox="0 0 576 512" fill="none" xmlns="http://www.w3.org/2000/svg">
    <g clip-path="url(#clip0_10_51)">
        <path d="M573.3 250C576.6 252.9 576.9 257.1 573.1 261.3C571.1 264.6 566 264.9 562.7 261.1L512 217.1V448C512 483.3 483.3 512 448 512H128C92.65 512 64 483.3 64 448V217.1L13.3 261.1C9.99703 264.9 4.94103 264.6 2.01203 261.3C-0.918169 257.1 -0.611569 252.9 2.69603 250L282.7 2.011C285.7 -0.6704 290.3 -0.6704 293.3 2.011L573.3 250ZM128 496H208V328C208 314.7 218.7 304 232 304H344C357.3 304 368 314.7 368 328V496H448C474.5 496 496 474.5 496 448V202.9L288 18.69L80 202.9V448C80 474.5 101.5 496 128 496ZM224 496H352V328C352 323.6 348.4 320 344 320H232C227.6 320 224 323.6 224 328V496Z"
              fill="currentColor"/>
    </g>
    <defs>
        <clipPath id="clip0_10_51">
            <rect width="576" height="512" fill="white"/>
        </clipPath>
    </defs>
</svg>
