<svg viewBox="0 0 448 512" fill="none" xmlns="http://www.w3.org/2000/svg">
<path d="M0 80C0 53.49 21.49 32 48 32H144C170.5 32 192 53.49 192 80V176C192 202.5 170.5 224 144 224H48C21.49 224 0 202.5 0 176V80ZM16 80V176C16 193.7 30.33 208 48 208H144C161.7 208 176 193.7 176 176V80C176 62.33 161.7 48 144 48H48C30.33 48 16 62.33 16 80ZM0 336C0 309.5 21.49 288 48 288H144C170.5 288 192 309.5 192 336V432C192 458.5 170.5 480 144 480H48C21.49 480 0 458.5 0 432V336ZM16 336V432C16 449.7 30.33 464 48 464H144C161.7 464 176 449.7 176 432V336C176 318.3 161.7 304 144 304H48C30.33 304 16 318.3 16 336ZM400 32C426.5 32 448 53.49 448 80V176C448 202.5 426.5 224 400 224H304C277.5 224 256 202.5 256 176V80C256 53.49 277.5 32 304 32H400ZM400 48H304C286.3 48 272 62.33 272 80V176C272 193.7 286.3 208 304 208H400C417.7 208 432 193.7 432 176V80C432 62.33 417.7 48 400 48ZM256 336C256 309.5 277.5 288 304 288H400C426.5 288 448 309.5 448 336V432C448 458.5 426.5 480 400 480H304C277.5 480 256 458.5 256 432V336ZM272 336V432C272 449.7 286.3 464 304 464H400C417.7 464 432 449.7 432 432V336C432 318.3 417.7 304 400 304H304C286.3 304 272 318.3 272 336Z" fill="currentColor"/>
</svg>
